<svg width="16" height="12" viewBox="0 0 16 12" fill="none" xmlns="http://www.w3.org/2000/svg">
<path fill-rule="evenodd" clip-rule="evenodd" d="M0 2C0 0.895333 0.895333 0 2 0H14C15.1047 0 16 0.895333 16 2V10C16 11.1047 15.1047 12 14 12H2C0.895333 12 0 11.1047 0 10V2ZM2 1.33333C1.632 1.33333 1.33333 1.632 1.33333 2V2.66667H14.6667V2C14.6667 1.632 14.368 1.33333 14 1.33333H2ZM14.6667 4H1.33333V10C1.33333 10.368 1.632 10.6667 2 10.6667H14C14.368 10.6667 14.6667 10.368 14.6667 10V4ZM2.66667 8.66667C2.66667 8.29867 2.96533 8 3.33333 8H7.33333C7.70133 8 8 8.29867 8 8.66667C8 9.03467 7.70133 9.33333 7.33333 9.33333H3.33333C2.96533 9.33333 2.66667 9.03467 2.66667 8.66667V8.66667Z" fill="white"/>
</svg>
