<svg width="18" height="14" viewBox="0 0 18 14" fill="none" xmlns="http://www.w3.org/2000/svg">
<path fill-rule="evenodd" clip-rule="evenodd" d="M0 2.25C0 1.00725 1.00725 0 2.25 0H15.75C16.9928 0 18 1.00725 18 2.25V11.25C18 12.4928 16.9928 13.5 15.75 13.5H2.25C1.00725 13.5 0 12.4928 0 11.25V2.25ZM2.25 1.5C1.836 1.5 1.5 1.836 1.5 2.25V3H16.5V2.25C16.5 1.836 16.164 1.5 15.75 1.5H2.25ZM16.5 4.5H1.5V11.25C1.5 11.664 1.836 12 2.25 12H15.75C16.164 12 16.5 11.664 16.5 11.25V4.5ZM3 9.75C3 9.336 3.336 9 3.75 9H8.25C8.664 9 9 9.336 9 9.75C9 10.164 8.664 10.5 8.25 10.5H3.75C3.336 10.5 3 10.164 3 9.75V9.75Z" fill="#333333"/>
</svg>
