<svg width="10" height="17" viewBox="0 0 10 17" fill="none" xmlns="http://www.w3.org/2000/svg">
<path d="M2.22231 16.6653C2.13687 16.6653 2.05066 16.646 1.97082 16.6053C1.74347 16.4899 1.62421 16.2338 1.68143 15.9848L3.19068 9.44357H0.555907C0.337975 9.44357 0.140895 9.31642 0.0503648 9.11908C-0.0401649 8.92149 -0.00685197 8.68907 0.135809 8.52479L7.35759 0.191997C7.52491 -0.00126883 7.8021 -0.0551798 8.02919 0.060271C8.25704 0.175722 8.37655 0.432053 8.31858 0.680755L6.80932 7.22152H9.44409C9.66203 7.22152 9.85911 7.34867 9.94964 7.546C10.0402 7.74359 10.0069 7.97602 9.86419 8.14029L2.64241 16.4731C2.53408 16.5987 2.37972 16.6653 2.22231 16.6653ZM1.77246 8.33254H3.88898C4.05834 8.33254 4.21829 8.40985 4.32332 8.54208C4.42885 8.67406 4.46776 8.84749 4.43012 9.01304L3.2662 14.0573L8.22754 8.33254H6.11102C5.94166 8.33254 5.78171 8.25524 5.67618 8.123C5.57115 7.99102 5.53174 7.81759 5.56937 7.65204L6.7338 2.60782L1.77246 8.33254Z" fill="white"/>
</svg>
