<svg width="19" height="18" viewBox="0 0 19 18" fill="none" xmlns="http://www.w3.org/2000/svg">
<path fill-rule="evenodd" clip-rule="evenodd" d="M9.96532 1.73432C9.68824 1.53245 9.31221 1.53245 9.03433 1.73432L3.95822 5.42662V14.6668C3.95822 15.1038 4.31289 15.4585 4.74988 15.4585H6.3332V10.7086C6.3332 9.39678 7.39639 8.33358 8.70817 8.33358H10.2915C11.6033 8.33358 12.6665 9.39678 12.6665 10.7086V15.4585H14.2498C14.6868 15.4585 15.0414 15.1038 15.0414 14.6668V5.42662L9.96532 1.73432ZM16.6247 6.57769L17.7426 7.39072C18.0956 7.64801 18.5912 7.56963 18.8485 7.21576C19.1058 6.86268 19.0274 6.36711 18.6736 6.10982L10.8971 0.454214C10.0635 -0.151405 8.93617 -0.151405 8.10255 0.454214L0.326099 6.10982C-0.0277721 6.36711 -0.105355 6.86268 0.151143 7.21576C0.408431 7.56963 0.904009 7.64801 1.25709 7.39072L2.37491 6.57769V14.6668C2.37491 15.9786 3.43811 17.0418 4.74988 17.0418H14.2498C15.5616 17.0418 16.6247 15.9786 16.6247 14.6668V6.57769ZM11.0831 15.4585V10.7086C11.0831 10.2716 10.7285 9.9169 10.2915 9.9169H8.70817C8.27118 9.9169 7.91651 10.2716 7.91651 10.7086V15.4585H11.0831V15.4585Z" fill="#333333"/>
</svg>
