<svg width="148" height="116" viewBox="0 0 148 116" fill="none" xmlns="http://www.w3.org/2000/svg">
<path d="M74 66.6669C59.296 66.6669 47.3331 54.704 47.3331 40C47.3331 25.296 59.296 13.3331 74 13.3331C88.7039 13.3331 100.667 25.296 100.667 40C100.667 54.704 88.7039 66.6669 74 66.6669V66.6669ZM74 15.9998C60.7669 15.9998 49.9997 26.767 49.9997 40C49.9997 53.233 60.7669 64.0002 74 64.0002C87.233 64.0002 98.0002 53.233 98.0002 40C98.0002 26.767 87.233 15.9998 74 15.9998Z" fill="url(#paint0_linear)"/>
<path d="M74.0001 80C73.264 80 72.6664 79.4025 72.6664 78.6664V70.6665C72.6664 69.9304 73.264 69.3335 74.0001 69.3335C74.7361 69.3335 75.3337 69.9304 75.3337 70.6665V78.6664C75.3337 79.4025 74.7361 80 74.0001 80Z" fill="url(#paint1_linear)"/>
<path d="M74.0001 10.6665C73.264 10.6665 72.6664 10.0696 72.6664 9.3335V1.33362C72.6664 0.597534 73.264 0 74.0001 0C74.7361 0 75.3337 0.597534 75.3337 1.33362V9.3335C75.3337 10.0696 74.7361 10.6665 74.0001 10.6665Z" fill="url(#paint2_linear)"/>
<path d="M43.3335 41.3336H35.3336C34.5975 41.3336 34 40.7361 34 40C34 39.2639 34.5975 38.6664 35.3336 38.6664H43.3335C44.0696 38.6664 44.6665 39.2639 44.6665 40C44.6665 40.7361 44.0696 41.3336 43.3335 41.3336Z" fill="url(#paint3_linear)"/>
<path d="M112.666 41.3336H104.667C103.93 41.3336 103.333 40.7361 103.333 40C103.333 39.2639 103.93 38.6664 104.667 38.6664H112.666C113.402 38.6664 114 39.2639 114 40C114 40.7361 113.402 41.3336 112.666 41.3336V41.3336Z" fill="url(#paint4_linear)"/>
<path d="M67.3332 60C67.1281 60 66.9212 59.9536 66.7295 59.8559C66.1839 59.5788 65.8976 58.9642 66.0349 58.3667L69.6574 42.6666H63.3335C62.8105 42.6666 62.3374 42.3614 62.1202 41.8878C61.9029 41.4136 61.9828 40.8557 62.3252 40.4614L79.6586 20.4614C80.0602 19.9976 80.7255 19.8682 81.2705 20.1453C81.8174 20.4224 82.1043 21.0376 81.9651 21.6345L78.3427 37.3334H84.6665C85.1896 37.3334 85.6626 37.6385 85.8799 38.1122C86.0972 38.5864 86.0172 39.1443 85.6748 39.5386L68.3415 59.5386C68.0815 59.8401 67.711 60 67.3332 60ZM66.2535 40H71.3334C71.7399 40 72.1238 40.1855 72.3759 40.5029C72.6292 40.8197 72.7226 41.236 72.6322 41.6333L69.8387 53.7402L81.7466 40H76.6667C76.2602 40 75.8763 39.8144 75.623 39.4971C75.3709 39.1803 75.2763 38.764 75.3666 38.3667L78.1614 26.2598L66.2535 40Z" fill="url(#paint5_linear)"/>
<path d="M52.316 19.6478C51.9748 19.6478 51.633 19.5172 51.373 19.2572L45.7157 13.6011C45.1944 13.0798 45.1944 12.2375 45.7157 11.7157C46.2357 11.1945 47.0798 11.1945 47.601 11.7157L53.2584 17.3718C53.7802 17.8931 53.7802 18.736 53.2584 19.2572C52.9984 19.5184 52.656 19.6478 52.316 19.6478Z" fill="url(#paint6_linear)"/>
<path d="M101.341 68.6749C101 68.6749 100.659 68.5437 100.399 68.2843L94.7427 62.6282C94.2215 62.1069 94.2215 61.264 94.7427 60.7428C95.264 60.2216 96.1069 60.2216 96.6281 60.7428L102.284 66.3989C102.805 66.9202 102.805 67.7624 102.284 68.2843C102.024 68.5437 101.682 68.6749 101.341 68.6749V68.6749Z" fill="url(#paint7_linear)"/>
<path d="M46.6587 68.6749C46.3175 68.6749 45.9757 68.5437 45.7157 68.2843C45.1944 67.7624 45.1944 66.9202 45.7157 66.3989L51.373 60.7428C51.8949 60.2216 52.7384 60.2216 53.2584 60.7428C53.7802 61.264 53.7802 62.1069 53.2584 62.6282L47.601 68.2843C47.341 68.5437 46.9998 68.6749 46.6587 68.6749V68.6749Z" fill="url(#paint8_linear)"/>
<path d="M95.6851 19.6478C95.344 19.6478 95.0028 19.5172 94.7428 19.2572C94.2215 18.736 94.2215 17.8931 94.7428 17.3718L100.399 11.7157C100.92 11.1945 101.762 11.1945 102.284 11.7157C102.806 12.2375 102.806 13.0798 102.284 13.6011L96.6281 19.2572C96.3669 19.5184 96.0263 19.6478 95.6851 19.6478V19.6478Z" fill="url(#paint9_linear)"/>
<path d="M7.44781 106.168C6.27981 106.168 5.22381 105.968 4.27981 105.568C3.35181 105.168 2.61581 104.592 2.07181 103.84C1.52781 103.088 1.24781 102.2 1.23181 101.176H4.83181C4.87981 101.864 5.11981 102.408 5.55181 102.808C5.99981 103.208 6.60781 103.408 7.37581 103.408C8.15981 103.408 8.77581 103.224 9.22381 102.856C9.67181 102.472 9.89581 101.976 9.89581 101.368C9.89581 100.872 9.74381 100.464 9.43981 100.144C9.13581 99.824 8.75181 99.576 8.28781 99.4C7.83981 99.208 7.21581 99 6.41581 98.776C5.32781 98.456 4.43981 98.144 3.75181 97.84C3.07981 97.52 2.49581 97.048 1.99981 96.424C1.51981 95.784 1.27981 94.936 1.27981 93.88C1.27981 92.888 1.52781 92.024 2.02381 91.288C2.51981 90.552 3.21581 89.992 4.11181 89.608C5.00781 89.208 6.03181 89.008 7.18381 89.008C8.91181 89.008 10.3118 89.432 11.3838 90.28C12.4718 91.112 13.0718 92.28 13.1838 93.784H9.48781C9.45581 93.208 9.20781 92.736 8.74381 92.368C8.29581 91.984 7.69581 91.792 6.94381 91.792C6.28781 91.792 5.75981 91.96 5.35981 92.296C4.97581 92.632 4.78381 93.12 4.78381 93.76C4.78381 94.208 4.92781 94.584 5.21581 94.888C5.51981 95.176 5.88781 95.416 6.31981 95.608C6.76781 95.784 7.39181 95.992 8.19181 96.232C9.27981 96.552 10.1678 96.872 10.8558 97.192C11.5438 97.512 12.1358 97.992 12.6318 98.632C13.1278 99.272 13.3758 100.112 13.3758 101.152C13.3758 102.048 13.1438 102.88 12.6798 103.648C12.2158 104.416 11.5358 105.032 10.6398 105.496C9.74381 105.944 8.67981 106.168 7.44781 106.168ZM32.5008 92.512C34.1328 92.512 35.4448 93.016 36.4368 94.024C37.4448 95.016 37.9488 96.408 37.9488 98.2V106H34.5888V98.656C34.5888 97.616 34.3248 96.824 33.7968 96.28C33.2688 95.72 32.5488 95.44 31.6368 95.44C30.7248 95.44 29.9968 95.72 29.4528 96.28C28.9248 96.824 28.6608 97.616 28.6608 98.656V106H25.3008V98.656C25.3008 97.616 25.0368 96.824 24.5088 96.28C23.9808 95.72 23.2608 95.44 22.3488 95.44C21.4208 95.44 20.6848 95.72 20.1408 96.28C19.6128 96.824 19.3488 97.616 19.3488 98.656V106H15.9888V92.704H19.3488V94.312C19.7808 93.752 20.3328 93.312 21.0048 92.992C21.6928 92.672 22.4448 92.512 23.2608 92.512C24.3008 92.512 25.2288 92.736 26.0448 93.184C26.8608 93.616 27.4928 94.24 27.9408 95.056C28.3728 94.288 28.9968 93.672 29.8128 93.208C30.6448 92.744 31.5408 92.512 32.5008 92.512ZM39.9733 99.304C39.9733 97.96 40.2373 96.768 40.7653 95.728C41.3093 94.688 42.0373 93.888 42.9493 93.328C43.8773 92.768 44.9093 92.488 46.0453 92.488C47.0373 92.488 47.9013 92.688 48.6373 93.088C49.3893 93.488 49.9893 93.992 50.4373 94.6V92.704H53.8213V106H50.4373V104.056C50.0053 104.68 49.4053 105.2 48.6373 105.616C47.8853 106.016 47.0133 106.216 46.0213 106.216C44.9013 106.216 43.8773 105.928 42.9493 105.352C42.0373 104.776 41.3093 103.968 40.7653 102.928C40.2373 101.872 39.9733 100.664 39.9733 99.304ZM50.4373 99.352C50.4373 98.536 50.2773 97.84 49.9573 97.264C49.6373 96.672 49.2053 96.224 48.6613 95.92C48.1173 95.6 47.5333 95.44 46.9093 95.44C46.2853 95.44 45.7093 95.592 45.1813 95.896C44.6533 96.2 44.2213 96.648 43.8853 97.24C43.5653 97.816 43.4053 98.504 43.4053 99.304C43.4053 100.104 43.5653 100.808 43.8853 101.416C44.2213 102.008 44.6533 102.464 45.1813 102.784C45.7253 103.104 46.3013 103.264 46.9093 103.264C47.5333 103.264 48.1173 103.112 48.6613 102.808C49.2053 102.488 49.6373 102.04 49.9573 101.464C50.2773 100.872 50.4373 100.168 50.4373 99.352ZM60.1629 94.768C60.5949 94.064 61.1549 93.512 61.8429 93.112C62.5469 92.712 63.3469 92.512 64.2429 92.512V96.04H63.3549C62.2989 96.04 61.4989 96.288 60.9549 96.784C60.4269 97.28 60.1629 98.144 60.1629 99.376V106H56.8029V92.704H60.1629V94.768ZM70.118 95.464V101.896C70.118 102.344 70.222 102.672 70.43 102.88C70.654 103.072 71.022 103.168 71.534 103.168H73.094V106H70.982C68.15 106 66.734 104.624 66.734 101.872V95.464H65.15V92.704H66.734V89.416H70.118V92.704H73.094V95.464H70.118ZM98.8934 89.248V106H95.5334V95.104L91.0454 106H88.5014L83.9894 95.104V106H80.6294V89.248H84.4454L89.7734 101.704L95.1014 89.248H98.8934ZM114.275 99.064C114.275 99.544 114.243 99.976 114.179 100.36H104.459C104.539 101.32 104.875 102.072 105.467 102.616C106.059 103.16 106.787 103.432 107.651 103.432C108.899 103.432 109.787 102.896 110.315 101.824H113.939C113.555 103.104 112.819 104.16 111.731 104.992C110.643 105.808 109.307 106.216 107.723 106.216C106.443 106.216 105.291 105.936 104.267 105.376C103.259 104.8 102.467 103.992 101.891 102.952C101.331 101.912 101.051 100.712 101.051 99.352C101.051 97.976 101.331 96.768 101.891 95.728C102.451 94.688 103.235 93.888 104.243 93.328C105.251 92.768 106.411 92.488 107.723 92.488C108.987 92.488 110.115 92.76 111.107 93.304C112.115 93.848 112.891 94.624 113.435 95.632C113.995 96.624 114.275 97.768 114.275 99.064ZM110.795 98.104C110.779 97.24 110.467 96.552 109.859 96.04C109.251 95.512 108.507 95.248 107.627 95.248C106.795 95.248 106.091 95.504 105.515 96.016C104.955 96.512 104.611 97.208 104.483 98.104H110.795ZM120.34 95.464V101.896C120.34 102.344 120.444 102.672 120.652 102.88C120.876 103.072 121.244 103.168 121.756 103.168H123.316V106H121.204C118.372 106 116.956 104.624 116.956 101.872V95.464H115.372V92.704H116.956V89.416H120.34V92.704H123.316V95.464H120.34ZM137.793 99.064C137.793 99.544 137.761 99.976 137.697 100.36H127.977C128.057 101.32 128.393 102.072 128.985 102.616C129.577 103.16 130.305 103.432 131.169 103.432C132.417 103.432 133.305 102.896 133.833 101.824H137.457C137.073 103.104 136.337 104.16 135.249 104.992C134.161 105.808 132.825 106.216 131.241 106.216C129.961 106.216 128.809 105.936 127.785 105.376C126.777 104.8 125.985 103.992 125.409 102.952C124.849 101.912 124.569 100.712 124.569 99.352C124.569 97.976 124.849 96.768 125.409 95.728C125.969 94.688 126.753 93.888 127.761 93.328C128.769 92.768 129.929 92.488 131.241 92.488C132.505 92.488 133.633 92.76 134.625 93.304C135.633 93.848 136.409 94.624 136.953 95.632C137.513 96.624 137.793 97.768 137.793 99.064ZM134.313 98.104C134.297 97.24 133.985 96.552 133.377 96.04C132.769 95.512 132.025 95.248 131.145 95.248C130.313 95.248 129.609 95.504 129.033 96.016C128.473 96.512 128.129 97.208 128.001 98.104H134.313ZM143.305 94.768C143.737 94.064 144.297 93.512 144.985 93.112C145.689 92.712 146.489 92.512 147.385 92.512V96.04H146.497C145.441 96.04 144.641 96.288 144.097 96.784C143.569 97.28 143.305 98.144 143.305 99.376V106H139.945V92.704H143.305V94.768Z" fill="url(#paint10_linear)"/>
<defs>
<linearGradient id="paint0_linear" x1="44.0678" y1="16.9933" x2="95.4585" y2="72.3822" gradientUnits="userSpaceOnUse">
<stop stop-color="#FFA448"/>
<stop offset="1" stop-color="#FF0488"/>
</linearGradient>
<linearGradient id="paint1_linear" x1="72.5031" y1="70.0655" x2="77.6825" y2="71.4614" gradientUnits="userSpaceOnUse">
<stop stop-color="#FFA448"/>
<stop offset="1" stop-color="#FF0488"/>
</linearGradient>
<linearGradient id="paint2_linear" x1="72.5031" y1="0.732015" x2="77.6825" y2="2.12792" gradientUnits="userSpaceOnUse">
<stop stop-color="#FFA448"/>
<stop offset="1" stop-color="#FF0488"/>
</linearGradient>
<linearGradient id="paint3_linear" x1="33.3469" y1="38.8494" x2="34.4818" y2="43.7407" gradientUnits="userSpaceOnUse">
<stop stop-color="#FFA448"/>
<stop offset="1" stop-color="#FF0488"/>
</linearGradient>
<linearGradient id="paint4_linear" x1="102.68" y1="38.8494" x2="103.815" y2="43.7407" gradientUnits="userSpaceOnUse">
<stop stop-color="#FFA448"/>
<stop offset="1" stop-color="#FF0488"/>
</linearGradient>
<linearGradient id="paint5_linear" x1="60.5298" y1="22.7457" x2="95.7792" y2="45.5425" gradientUnits="userSpaceOnUse">
<stop stop-color="#FFA448"/>
<stop offset="1" stop-color="#FF0488"/>
</linearGradient>
<linearGradient id="paint6_linear" x1="44.815" y1="11.896" x2="52.8347" y2="20.5416" gradientUnits="userSpaceOnUse">
<stop stop-color="#FFA448"/>
<stop offset="1" stop-color="#FF0488"/>
</linearGradient>
<linearGradient id="paint7_linear" x1="93.8422" y1="60.9231" x2="101.862" y2="69.5671" gradientUnits="userSpaceOnUse">
<stop stop-color="#FFA448"/>
<stop offset="1" stop-color="#FF0488"/>
</linearGradient>
<linearGradient id="paint8_linear" x1="44.815" y1="60.9231" x2="52.8347" y2="69.5687" gradientUnits="userSpaceOnUse">
<stop stop-color="#FFA448"/>
<stop offset="1" stop-color="#FF0488"/>
</linearGradient>
<linearGradient id="paint9_linear" x1="93.8422" y1="11.896" x2="101.862" y2="20.54" gradientUnits="userSpaceOnUse">
<stop stop-color="#FFA448"/>
<stop offset="1" stop-color="#FF0488"/>
</linearGradient>
<linearGradient id="paint10_linear" x1="-9.06123" y1="82.4706" x2="5.87912" y2="148.671" gradientUnits="userSpaceOnUse">
<stop stop-color="#FFA448"/>
<stop offset="1" stop-color="#FF0488"/>
</linearGradient>
</defs>
</svg>
