<svg width="80" height="80" viewBox="0 0 80 80" fill="none" xmlns="http://www.w3.org/2000/svg">
<path d="M40 66.6669C25.296 66.6669 13.3331 54.704 13.3331 40C13.3331 25.296 25.296 13.3331 40 13.3331C54.7039 13.3331 66.6668 25.296 66.6668 40C66.6668 54.704 54.7039 66.6669 40 66.6669V66.6669ZM40 15.9998C26.7669 15.9998 15.9997 26.767 15.9997 40C15.9997 53.233 26.7669 64.0002 40 64.0002C53.233 64.0002 64.0002 53.233 64.0002 40C64.0002 26.767 53.233 15.9998 40 15.9998Z" fill="white"/>
<path d="M40.0001 80C39.264 80 38.6664 79.4025 38.6664 78.6664V70.6665C38.6664 69.9304 39.264 69.3335 40.0001 69.3335C40.7361 69.3335 41.3337 69.9304 41.3337 70.6665V78.6664C41.3337 79.4025 40.7361 80 40.0001 80Z" fill="white"/>
<path d="M40.0001 10.6665C39.264 10.6665 38.6664 10.0696 38.6664 9.3335V1.33362C38.6664 0.597534 39.264 0 40.0001 0C40.7361 0 41.3337 0.597534 41.3337 1.33362V9.3335C41.3337 10.0696 40.7361 10.6665 40.0001 10.6665Z" fill="white"/>
<path d="M9.3335 41.3336H1.33362C0.597534 41.3336 0 40.7361 0 40C0 39.2639 0.597534 38.6664 1.33362 38.6664H9.3335C10.0696 38.6664 10.6665 39.2639 10.6665 40C10.6665 40.7361 10.0696 41.3336 9.3335 41.3336Z" fill="white"/>
<path d="M78.6664 41.3336H70.6665C69.9304 41.3336 69.3335 40.7361 69.3335 40C69.3335 39.2639 69.9304 38.6664 70.6665 38.6664H78.6664C79.4025 38.6664 80 39.2639 80 40C80 40.7361 79.4025 41.3336 78.6664 41.3336V41.3336Z" fill="white"/>
<path d="M33.3332 60C33.1281 60 32.9212 59.9536 32.7295 59.8559C32.1839 59.5788 31.8976 58.9642 32.0349 58.3667L35.6574 42.6666H29.3335C28.8105 42.6666 28.3374 42.3614 28.1202 41.8878C27.9029 41.4136 27.9828 40.8557 28.3252 40.4614L45.6586 20.4614C46.0602 19.9976 46.7255 19.8682 47.2705 20.1453C47.8174 20.4224 48.1043 21.0376 47.9651 21.6345L44.3427 37.3334H50.6665C51.1896 37.3334 51.6626 37.6385 51.8799 38.1122C52.0972 38.5864 52.0172 39.1443 51.6748 39.5386L34.3415 59.5386C34.0815 59.8401 33.711 60 33.3332 60ZM32.2535 40H37.3334C37.7399 40 38.1238 40.1855 38.3759 40.5029C38.6292 40.8197 38.7226 41.236 38.6322 41.6333L35.8387 53.7402L47.7466 40H42.6667C42.2602 40 41.8763 39.8144 41.623 39.4971C41.3709 39.1803 41.2763 38.764 41.3666 38.3667L44.1614 26.2598L32.2535 40Z" fill="white"/>
<path d="M67.3413 68.6749C67.0001 68.6749 66.6589 68.5437 66.3989 68.2843L60.7428 62.6282C60.2215 62.1069 60.2215 61.264 60.7428 60.7428C61.264 60.2216 62.1069 60.2216 62.6281 60.7428L68.2843 66.3989C68.8055 66.9202 68.8055 67.7624 68.2843 68.2843C68.0243 68.5437 67.6825 68.6749 67.3413 68.6749V68.6749Z" fill="white"/>
<path d="M18.316 19.6478C17.9748 19.6478 17.633 19.5172 17.373 19.2572L11.7157 13.6011C11.1944 13.0798 11.1944 12.2375 11.7157 11.7157C12.2357 11.1945 13.0798 11.1945 13.601 11.7157L19.2584 17.3718C19.7802 17.8931 19.7802 18.736 19.2584 19.2572C18.9984 19.5184 18.656 19.6478 18.316 19.6478Z" fill="white"/>
<path d="M12.6587 68.6749C12.3175 68.6749 11.9757 68.5437 11.7157 68.2843C11.1944 67.7624 11.1944 66.9202 11.7157 66.3989L17.373 60.7428C17.8949 60.2216 18.7384 60.2216 19.2584 60.7428C19.7802 61.264 19.7802 62.1069 19.2584 62.6282L13.601 68.2843C13.341 68.5437 12.9998 68.6749 12.6587 68.6749V68.6749Z" fill="white"/>
<path d="M61.6851 19.6478C61.344 19.6478 61.0028 19.5172 60.7428 19.2572C60.2215 18.736 60.2215 17.8931 60.7428 17.3718L66.3989 11.7157C66.9201 11.1945 67.7624 11.1945 68.2843 11.7157C68.8055 12.2375 68.8055 13.0798 68.2843 13.6011L62.6281 19.2572C62.3669 19.5184 62.0263 19.6478 61.6851 19.6478V19.6478Z" fill="white"/>
</svg>
